DBRep_DrawableShape

CASCADE Topology V1, (c) Matra-Datavision
Locations 6
1
              1               0               0               0 
              0               1               0               0 
              0               0               1               2 
1
              1               0               0               0 
              0               1               0               0 
              0               0               1             100 
2  2 -1 0
1
              1               0               0               0 
              0               1               0               0 
              0               0               1               2 
2  4 -1 0
2  1 -1 0
Curve2ds 0
Curves 8
1 -1 -1 -1 0 0 1 
1 1 -1 -1 0 0 1 
1 -1 -1 -1 1 0 0 
1 1 1 -1 0 0 1 
1 1 -1 -1 0 1 0 
1 -1 1 -1 0 0 1 
1 1 1 -1 -1 0 0 
1 -1 1 -1 0 -1 0 
Polygon3D 0
PolygonOnTriangulations 36
2 1 2 
p 0.0080000008 1 0 2 
2 3 4 
p 0.0080000008 1 0 2 
2 3 4 
p 0.0080000008 1 0 2 
2 1 2 
p 0.0080000008 1 0 2 
2 1 2 
p 0.0080000008 1 0 2 
2 2 4 
p 0.4000000008 1 0 2 
2 1 3 
p 0.4000000008 1 0 2 
2 2 4 
p 0.0080000008 1 0 2 
2 1 3 
p 0.0080000008 1 0 2 
2 2 4 
p 0.0080000008 1 0 2 
2 1 3 
p 0.0080000008 1 0 2 
2 3 4 
p 0.0080000008 1 0 2 
2 1 2 
p 0.0080000008 1 0 2 
2 2 3 
p 0.0080000008 1 0 2 
2 2 4 
p 0.4000000008 1 0 2 
2 1 3 
p 0.4000000008 1 0 2 
2 2 4 
p 0.0080000008 1 0 2 
2 1 3 
p 0.0080000008 1 0 2 
2 2 4 
p 0.0080000008 1 0 2 
2 1 3 
p 0.0080000008 1 0 2 
2 3 4 
p 0.0080000008 1 0 2 
2 1 2 
p 0.0080000008 1 0 2 
2 3 4 
p 0.0080000008 1 0 2 
2 2 4 
p 0.4000000008 1 0 2 
2 1 3 
p 0.4000000008 1 0 2 
2 2 4 
p 0.0080000008 1 0 2 
2 1 3 
p 0.0080000008 1 0 2 
2 2 4 
p 0.0080000008 1 0 2 
2 1 3 
p 0.0080000008 1 0 2 
2 4 1 
p 0.0080000008 1 0 2 
2 1 3 
p 0.4000000008 1 0 2 
2 2 4 
p 0.4000000008 1 0 2 
2 1 3 
p 0.0080000008 1 0 2 
2 2 4 
p 0.0080000008 1 0 2 
2 1 3 
p 0.0080000008 1 0 2 
2 2 4 
p 0.0080000008 1 0 2 
Surfaces 5
1 -1 -1 -1 0 1 0 1 0 0 0 0 -1 
1 1 -1 -1 -1 0 0 0 1 0 0 0 -1 
1 1 1 -1 0 -1 0 -1 0 0 -0 -0 -1 
1 -1 1 -1 1 0 -0 0 -1 0 0 -0 -1 
1 0 0 -1 0 0 1 1 0 -0 -0 1 0 
Triangulations 13
4 2 1 0
-1 -1 -1 -1 -1 1 1 -1 -1 1 -1 1 0 0 0 -2 2 0 2 -2 3 1 2 3 2 4 
4 2 1 0
-1 1 -1 -1 1 1 -1 -1 -1 -1 -1 1 0 0 0 -2 2 0 2 -2 3 1 2 3 2 4 
4 2 1 0
1 -1 -1 1 -1 1 1 1 -1 1 1 1 0 0 0 -2 2 0 2 -2 3 1 2 3 2 4 
4 2 1 0
-1 -1 -1 1 -1 -1 1 1 -1 -1 1 -1 -1 -1 1 -1 1 1 -1 1 3 1 2 3 4 1 
4 2 1 0
-1 -1 -1 -1 -1 99 1 -1 -1 1 -1 99 0 0 0 -100 2 0 2 -100 1 2 4 3 1 4 
4 2 1 0
-1 -1 -1 -1 -1 1 1 -1 -1 1 -1 1 0 0 0 -2 2 0 2 -2 3 1 2 3 2 4 
4 2 1 0
1 1 -1 1 1 1 -1 1 -1 -1 1 1 0 0 0 -2 2 0 2 -2 3 1 2 3 2 4 
4 2 1 0
1 -1 -1 1 -1 99 1 1 -1 1 1 99 0 0 0 -100 2 0 2 -100 1 2 4 3 1 4 
4 2 1 0
1 -1 -1 1 -1 1 1 1 -1 1 1 1 0 0 0 -2 2 0 2 -2 3 1 2 3 2 4 
4 2 1 0
1 1 -1 1 1 99 -1 1 -1 -1 1 99 0 0 0 -100 2 0 2 -100 1 2 4 3 1 4 
4 2 1 0
1 1 -1 1 1 1 -1 1 -1 -1 1 1 0 0 0 -2 2 0 2 -2 3 1 2 3 2 4 
4 2 1 0
-1 1 -1 -1 1 99 -1 -1 -1 -1 -1 99 0 0 0 -100 2 0 2 -100 1 2 4 3 1 4 
4 2 1 0
-1 1 -1 -1 1 1 -1 -1 -1 -1 -1 1 0 0 0 -2 2 0 2 -2 3 1 2 3 2 4 

TShapes 24
Ve
1e-07
-1 -1 -1
0 0

0101101
*
Ed
 1e-07 1 1 0
1  1 0 0 2
6  1 1 0
6  2 2 0
0

0101000
+24 0 -24 1 *
Ve
1e-07
1 -1 -1
0 0

0101101
*
Ed
 1e-07 1 1 0
1  2 0 0 2
6  3 1 0
6  4 3 0
0

0101000
+22 0 -22 1 *
Ed
 1e-07 1 1 0
1  3 0 0 2
6  5 4 0
6  6 5 3
6  7 5 0
6  8 6 5
6  9 6 0
6  10 1 6
6  11 1 0
0

0101000
+24 0 -22 0 *
Wi

0101100
+23 0 -21 0 -20 0 +20 1 *
Fa
0  1e-07 1 0
2  1
0101000
+19 0 *
Ve
1e-07
1 1 -1
0 0

0101101
*
Ed
 1e-07 1 1 0
1  4 0 0 2
6  12 3 0
6  13 7 0
0

0101000
+17 0 -17 1 *
Ed
 1e-07 1 1 0
1  5 0 0 2
6  14 4 0
6  15 8 3
6  16 8 0
6  17 9 5
6  18 9 0
6  19 3 6
6  20 3 0
0

0101000
+22 0 -17 0 *
Wi

0101100
+21 0 -16 0 -15 0 +15 1 *
Fa
0  1e-07 2 0
2  3
0101000
+14 0 *
Ve
1e-07
-1 1 -1
0 0

0101101
*
Ed
 1e-07 1 1 0
1  6 0 0 2
6  21 7 0
6  22 2 0
0

0101000
+12 0 -12 1 *
Ed
 1e-07 1 1 0
1  7 0 0 2
6  23 4 0
6  24 10 3
6  25 10 0
6  26 11 5
6  27 11 0
6  28 7 6
6  29 7 0
0

0101000
+17 0 -12 0 *
Wi

0101100
+16 0 -11 0 -10 0 +10 1 *
Fa
0  1e-07 3 0
2  7
0101000
+9 0 *
Ed
 1e-07 1 1 0
1  8 0 0 2
6  30 4 0
6  31 12 0
6  32 12 3
6  33 13 0
6  34 13 5
6  35 2 0
6  36 2 6
0

0101000
+12 0 -24 0 *
Wi

0101100
+11 0 -23 0 -7 0 +7 1 *
Fa
0  1e-07 4 0
2  2
0101000
+6 0 *
Wi

0101100
+20 0 +15 0 +10 0 +7 0 *
Fa
0  1e-07 5 0
2  4
0101000
+4 0 *
Sh

0101100
+18 0 +13 0 +8 0 +5 0 +3 0 -3 1 *
So

1100000
-2 0 *

+1 0 //+
Transfinite Surface {4};
//+
Transfinite Surface {6};
//+
Transfinite Surface {2};
//+
Transfinite Surface {5};
//+
Transfinite Surface {3};
//+
Transfinite Surface {1};
//+
Transfinite Curve {4, 7, 10, 12} = 1 Using Progression 1;
//+
Transfinite Surface {3};
//+
Transfinite Surface {6};
//+
Transfinite Surface {5};
//+
Transfinite Surface {2};
//+
Transfinite Surface {3};
//+
Transfinite Surface {4};
//+
Transfinite Surface {1};
//+
Transfinite Surface {6};
//+
Transfinite Surface {4};
//+
Transfinite Surface {4};
//+
Transfinite Surface {3};
//+
Transfinite Volume{1} = {4, 6, 5, 3, 1, 7, 8, 2};
//+
Transfinite Curve {4, 2, 3, 1, 12, 10, 7, 5, 6, 9, 11} = 0 Using Progression 1;
//+
Transfinite Curve {8, 11, 1, 3, 2, 4, 7, 10, 5, 9, 6} = 0 Using Progression 1;
//+
Transfinite Volume{1} = {4, 2, 1, 3, 5, 7, 8, 6};
//+
Recombine Surface {3, 2, 1, 6, 4, 5};
