DBRep_DrawableShape

CASCADE Topology V1, (c) Matra-Datavision
Locations 4
1
              1               0               0             100 
              0               1               0               0 
              0               0               1               0 
2  1 -1 0
1
              1               0               0               0 
              0               1               0               0 
              0               0               1             100 
2  3 -1 0
Curve2ds 10
1 0 0 1 0 
1 0 -100 1 0 
1 0.35355339059327373 -0.35355339059327373 0 1 
1 -0.64644660940672627 -0.35355339059327373 0.70710678118654757 0.70710678118654757 
1 0 0 1 0 
1 0 -100 1 0 
1 0.35355339059327373 -0.35355339059327373 -1 0 
1 0.64644660940672627 -0.35355339059327373 -0.70710678118654757 0.70710678118654757 
1 -0.35355339059327373 0.64644660940672627 0 -1 
1 -0.64644660940672627 0.35355339059327373 0.70710678118654757 -0.70710678118654757 
Curves 6
1 0 0 0 1 0 0 
1 0 0 1 0.70710678118654757 0 -0.70710678118654757 
1 0 0 0 0 0 1 
1 1 0 0 -0.70710678118654757 0.70710678118654757 0 
1 0 1 0 0 -1 0 
1 0 0 1 0 0.70710678118654757 -0.70710678118654757 
Polygon3D 0
PolygonOnTriangulations 12
2 1 2 
p 0.0040000008 1 0 1 
2 1 2 
p 0.0040000008 1 0 1 
2 3 2 
p 0.0040000008 1 0 1.4142135623731 
2 1 2 
p 0.0040000008 1 0 1.4142135623731 
2 1 3 
p 0.0040000008 1 0 1 
2 2 3 
p 0.0040000008 1 0 1 
2 2 3 
p 0.0040000008 1 0 1.4142135623731 
2 2 3 
p 0.0040000008 1 0 1.4142135623731 
2 3 1 
p 0.0040000008 1 0 1 
2 1 2 
p 0.0040000008 1 0 1 
2 1 3 
p 0.0040000008 1 0 1.4142135623731 
2 3 1 
p 0.0040000008 1 0 1.4142135623731 
Surfaces 6
1 0.35355339059327373 0 0.35355339059327373 -0 -1 -0 0 0 -1 1 -0 0 
6 -1 -0 -0 
1 0 0 0 1 0 0 
6 -0 -0 -1 
1 0 0 0 0 0 1 
1 0.35355339059327373 0.35355339059327373 0 0 0 1 1 0 -0 -0 1 0 
1 0.33333333333333331 0.33333333333333331 0.33333333333333331 0.57735026918962573 0.57735026918962573 0.57735026918962584 0.70710678118654757 0 -0.70710678118654746 -0.40824829046386302 0.81649658092772615 -0.40824829046386307 
1 0 0.35355339059327373 0.35355339059327373 -1 -0 -0 0 0 -1 0 -1 0 
Triangulations 4
3 1 1 0
0 0 0 1 0 0 0 0 1 0.353553390593274 -0.353553390593274 0.353553390593274 0.646446609406726 -0.646446609406726 -0.353553390593274 2 3 1 
3 1 1 0
0 0 0 1 0 0 0 1 0 -0.353553390593274 -0.353553390593274 0.646446609406726 -0.353553390593274 -0.353553390593274 0.646446609406726 2 3 1 
3 1 1 5.55111512312578e-17
0 0 1 1 0 0 0 1 0 -0.707106781186547 -0.408248290463863 0.707106781186547 -0.408248290463863 0 0.816496580927726 3 1 2 
3 1 1 0
0 1 0 0 0 0 0 0 1 0.353553390593274 -0.646446609406726 0.353553390593274 0.353553390593274 -0.646446609406726 0.353553390593274 2 3 1 

TShapes 20
Ve
1e-07
0 0 0
0 0

0101101
*
Ve
1.00000000157009e-07
1 0 0
0 0

0101101
*
Ed
 1e-07 1 1 0
1  1 0 0 1
2  1 2 0 0 1
2  2 2 2 0 1
2  3 1 0 0 1
6  1 1 0
6  2 2 0
0

0101000
+20 0 -19 0 *
Ve
1.00000000157009e-07
0 0 1
0 0

0101101
*
Ed
 1.00000000157009e-07 1 1 0
1  2 0 0 1.4142135623731
2  4 1 0 0 1.4142135623731
6  3 1 0
6  4 3 0
0

0101000
+17 0 -19 0 *
Ed
 1e-07 1 1 0
1  3 0 0 1
2  5 3 0 0 1
2  6 3 4 0 1
2  7 1 0 0 1
6  5 1 0
6  6 4 0
0

0101000
+20 0 -17 0 *
Wi

0101100
+18 0 -16 0 -15 0 *
Fa
0  1e-07 1 0
2  1
0101000
+14 0 *
Ve
1.00000000157009e-07
0 1 0
0 0

0101101
*
Ed
 1.00000000157009e-07 1 1 0
1  4 0 0 1.4142135623731
2  8 4 0 0 1.4142135623731
6  7 2 0
6  8 3 0
0

0101000
+19 0 -12 0 *
Ed
 1e-07 1 1 0
1  5 0 0 1
2  9 4 0 0 1
6  9 2 0
6  10 4 0
0

0101000
+12 0 -20 0 *
Wi

0101100
+18 0 +11 0 +10 0 *
Fa
0  1e-07 4 0
2  2
0101000
+9 0 *
Ed
 1.00000000157009e-07 1 1 0
1  6 0 0 1.4142135623731
2  10 6 0 0 1.4142135623731
6  11 3 0
6  12 4 0
0

0101000
+17 0 -12 0 *
Wi

0101100
+16 0 +11 0 -7 0 *
Fa
0  1e-07 5 0
2  3
0101000
+6 0 *
Wi

0101100
+10 0 +15 0 +7 0 *
Fa
0  1e-07 6 0
2  4
0101000
+4 0 *
Sh

0101100
+13 0 -8 0 +5 0 +3 0 *
So

1100000
+2 0 *

+1 0 //+
Transfinite Surface {1};
//+
Transfinite Surface {3};
//+
Transfinite Surface {1} Right;
//+
Transfinite Surface {2} Right;
